<svg width="4272" height="863" viewBox="0 0 4272 863" fill="none" xmlns="http://www.w3.org/2000/svg">
<path d="M231.591 0H366.03V344.438C365.866 377.149 357.607 405.934 341.252 430.793C325.06 455.49 302.654 474.789 274.032 488.691C245.574 502.429 212.782 509.298 175.656 509.298C143.437 509.298 113.998 503.737 87.3388 492.616C60.68 481.331 39.4184 463.667 23.5539 439.625C7.68946 415.42 -0.160987 384.018 0.00256436 345.42H136.404C136.895 358.013 139.021 368.644 142.783 377.312C146.708 385.98 152.105 392.522 158.974 396.938C166.007 401.191 174.512 403.317 184.488 403.317C194.628 403.317 203.133 401.109 210.002 396.693C217.035 392.277 222.35 385.735 225.948 377.067C229.546 368.235 231.427 357.359 231.591 344.438V0Z" fill="#EEEFF1"/>
<path d="M1136.85 502.429V427.85L1301.71 230.607V228.644H1142.73V125.607H1461.66V208.037L1311.52 397.429V399.392H1467.55V502.429H1136.85Z" fill="#EEEFF1"/>
<path d="M2507.67 290.467V502.429H2372.25V125.607H2500.8V197.243H2504.73C2512.9 173.364 2527.3 154.638 2547.9 141.063C2568.67 127.488 2592.88 120.701 2620.52 120.701C2647.18 120.701 2670.32 126.834 2689.95 139.1C2709.74 151.203 2725.03 167.885 2735.82 189.147C2746.78 210.408 2752.18 234.696 2752.01 262.009V502.429H2616.59V290.467C2616.76 271.822 2612.01 257.184 2602.37 246.553C2592.88 235.922 2579.63 230.607 2562.62 230.607C2551.5 230.607 2541.77 233.06 2533.43 237.967C2525.25 242.71 2518.95 249.579 2514.54 258.574C2510.12 267.406 2507.83 278.037 2507.67 290.467Z" fill="#EEEFF1"/>
<path d="M3823.23 0V502.429H3687.81V0H3823.23Z" fill="#EEEFF1"/>
<path d="M4027.65 290.467V502.429H3892.23V125.607H4020.78V197.243H4024.71C4032.88 173.364 4047.28 154.638 4067.88 141.063C4088.66 127.488 4112.86 120.701 4140.5 120.701C4167.16 120.701 4190.3 126.834 4209.93 139.1C4229.72 151.203 4245.01 167.885 4255.81 189.147C4266.76 210.408 4272.16 234.696 4272 262.009V502.429H4136.58V290.467C4136.74 271.822 4132 257.184 4122.35 246.553C4112.86 235.922 4099.61 230.607 4082.6 230.607C4071.48 230.607 4061.75 233.06 4053.41 237.967C4045.23 242.71 4038.94 249.579 4034.52 258.574C4030.1 267.406 4027.81 278.037 4027.65 290.467Z" fill="#EEEFF1"/>
<path fill-rule="evenodd" clip-rule="evenodd" d="M3038.68 470.291C3028.54 479.123 3016.35 485.91 3002.12 490.653C2987.9 495.233 2972.28 497.522 2955.27 497.522C2928.45 497.522 2903.75 491.307 2881.18 478.877C2858.77 466.448 2840.78 446.74 2827.21 419.754C2813.8 392.768 2807.09 357.523 2807.09 314.018C2807.09 268.551 2814.12 231.588 2828.19 203.13C2842.42 174.672 2860.74 153.82 2883.14 140.572C2905.71 127.324 2929.43 120.701 2954.29 120.701C2972.93 120.701 2989.29 123.972 3003.35 130.514C3017.42 136.892 3029.19 145.479 3038.68 156.273C3048.16 166.904 3055.36 178.598 3060.27 191.355H3063.21V125.607H3198.63V266.179L3204.56 531.214C3215.78 586.385 3262.13 653.55 3233.35 689.531C3233.35 689.531 3229.58 656.362 3180.08 613.534C3156.12 696.443 3116.66 735.729 3075.03 768.69C3017.46 814.266 2849.07 903.979 2636.06 840.652C2423.05 777.325 2235.47 646.354 2168.3 581.587C2525.24 719.755 2739.2 653.55 2801.57 603.176L2679.23 761.494C3070.71 778.765 3065.17 555.964 3065.17 437.663C3065.17 437.663 3046.25 463.574 3038.68 470.291ZM3037.21 391.051C3028.37 397.92 3017.74 401.354 3005.31 401.354C2992.88 401.354 2982.25 398.001 2973.42 391.296C2964.75 384.427 2958.05 374.532 2953.3 361.611C2948.73 348.527 2946.44 332.663 2946.44 314.018C2946.44 295.373 2948.73 279.427 2953.3 266.179C2958.05 252.768 2964.75 242.546 2973.42 235.513C2982.25 228.317 2992.88 224.719 3005.31 224.719C3017.74 224.719 3028.37 228.317 3037.21 235.513C3046.2 242.546 3053.07 252.768 3057.81 266.179C3062.72 279.427 3065.17 295.373 3065.17 314.018C3065.17 332.336 3062.72 348.037 3057.81 361.121C3053.07 374.041 3046.2 384.018 3037.21 391.051Z" fill="#EEEFF1"/>
<path fill-rule="evenodd" clip-rule="evenodd" d="M3448.07 509.298C3407.83 509.298 3373.16 501.611 3344.05 486.237C3315.1 470.7 3292.78 448.457 3277.07 419.508C3261.54 390.396 3253.77 355.56 3253.77 314.999C3253.77 276.074 3261.62 242.056 3277.32 212.943C3293.02 183.831 3315.18 161.18 3343.8 144.988C3372.42 128.796 3406.2 120.701 3445.12 120.701C3473.58 120.701 3499.34 125.117 3522.4 133.948C3545.46 142.78 3565.17 155.619 3581.53 172.465C3597.88 189.147 3610.47 209.427 3619.31 233.306C3628.14 257.184 3632.55 284.088 3632.55 314.018V345.42H3387.23V351.308C3387.23 363.41 3389.76 374.205 3394.83 383.691C3399.9 393.177 3407.18 400.618 3416.67 406.015C3426.15 411.413 3437.6 414.111 3451.01 414.111C3460.33 414.111 3468.84 412.803 3476.53 410.186C3484.38 407.569 3491.08 403.807 3496.64 398.901C3502.2 393.831 3506.29 387.779 3508.91 380.747H3632.55C3628.3 406.915 3618.24 429.649 3602.38 448.948C3586.51 468.083 3565.5 482.966 3539.33 493.597C3513.32 504.064 3482.9 509.298 3448.07 509.298ZM3507.93 270.841H3387.23C3387.55 259.883 3390.42 250.315 3395.81 242.137C3401.37 233.96 3408.73 227.581 3417.89 223.002C3427.05 218.259 3437.11 215.887 3448.07 215.887C3459.35 215.887 3469.41 218.259 3478.24 223.002C3487.24 227.581 3494.35 234.042 3499.59 242.383C3504.98 250.56 3507.76 260.046 3507.93 270.841Z" fill="#EEEFF1"/>
<path fill-rule="evenodd" clip-rule="evenodd" d="M1950.96 502.429H1803.77L1969.61 0H2156.06L2321.9 502.429H2174.7L2145.67 406.261H1979.99L1950.96 502.429ZM2060.87 138.364H2064.79L2115.05 304.205H2010.8L2060.87 138.364Z" fill="#EEEFF1"/>
<path fill-rule="evenodd" clip-rule="evenodd" d="M613.196 509.298C572.963 509.298 538.29 501.611 509.178 486.237C480.229 470.7 457.905 448.457 442.204 419.508C426.666 390.396 418.898 355.56 418.898 314.999C418.898 276.074 426.748 242.056 442.449 212.943C458.15 183.831 480.311 161.18 508.933 144.988C537.554 128.796 571.327 120.701 610.252 120.701C638.71 120.701 664.47 125.117 687.53 133.948C710.591 142.78 730.299 155.619 746.654 172.465C763.009 189.147 775.602 209.427 784.434 233.306C793.266 257.184 797.682 284.088 797.682 314.018V345.42H552.355V351.308C552.355 363.41 554.89 374.205 559.96 383.691C565.031 393.177 572.309 400.618 581.794 406.015C591.28 411.413 602.729 414.111 616.14 414.111C625.463 414.111 633.967 412.803 641.654 410.186C649.505 407.569 656.21 403.807 661.771 398.901C667.332 393.831 671.42 387.779 674.037 380.747H797.682C793.43 406.915 783.371 429.649 767.507 448.948C751.642 468.083 730.626 482.966 704.458 493.597C678.453 504.064 648.033 509.298 613.196 509.298ZM673.056 270.841H552.355C552.682 259.883 555.545 250.315 560.942 242.137C566.502 233.96 573.862 227.581 583.021 223.002C592.18 218.259 602.238 215.887 613.196 215.887C624.481 215.887 634.54 218.259 643.371 223.002C652.367 227.581 659.481 234.042 664.715 242.383C670.112 250.56 672.892 260.046 673.056 270.841Z" fill="#EEEFF1"/>
<path d="M1077.66 125.607V223.738H1012.89V381.237C1012.89 386.471 1013.79 390.887 1015.59 394.485C1017.39 397.92 1020.17 400.536 1023.93 402.336C1027.7 403.971 1032.52 404.789 1038.41 404.789C1042.5 404.789 1047.24 404.298 1052.64 403.317C1058.2 402.336 1062.29 401.518 1064.9 400.864L1084.53 496.05C1078.48 497.849 1069.81 500.057 1058.53 502.674C1047.4 505.291 1034.16 507.008 1018.78 507.826C987.708 509.461 961.621 506.272 940.523 498.258C919.425 490.081 903.561 477.242 892.93 459.742C882.299 442.242 877.147 420.326 877.474 393.994V223.738H829.39V125.607H877.292L877.474 35.327H1012.89V125.607H1077.66Z" fill="#EEEFF1"/>
<path d="M1767.15 125.607V223.738H1702.38V381.237C1702.38 386.471 1703.28 390.887 1705.08 394.485C1706.88 397.92 1709.66 400.536 1713.42 402.336C1717.19 403.971 1722.01 404.789 1727.9 404.789C1731.99 404.789 1736.73 404.298 1742.13 403.317C1747.69 402.336 1751.78 401.518 1754.39 400.864L1774.02 496.05C1767.97 497.849 1759.3 500.057 1748.02 502.674C1736.89 505.291 1723.65 507.008 1708.27 507.826C1677.2 509.461 1651.11 506.272 1630.01 498.258C1608.92 490.081 1593.05 477.242 1582.42 459.742C1571.79 442.242 1566.64 420.326 1566.96 393.994V223.738H1518.88V125.607H1566.96V35.327H1702.38V125.607H1767.15Z" fill="#EEEFF1"/>
</svg>
